#N canvas 32 32 1920 966 12;
#X obj 60 41 netreceive -u -b 5005;
#X obj 61 106 oscparse;
#X obj 69 387 route rgb brightness contrast dominant;
#X obj 69 459 unpack f f f;
#X obj 79 535 f;
#X obj 471 256 print OSC;
#X obj 61 182 route cell;
#X obj 61 252 route 0 1 2 3;
#X obj 61 315 route 0 1 2 3;
#X obj 741 110 route list;
#X obj 1178 123 route cell;
#X obj 610 251 route 0;
#X obj 611 303 route 0;
#X obj 658 423 route brightness;
#X obj 754 350 route contrast;
#X obj 500 339 route rgb;
#X obj 523 419 route dominant;
#X obj 1048 429 route brightness;
#X obj 1144 356 route contrast;
#X obj 890 345 route rgb;
#X obj 913 425 route dominant;
#X obj 1000 257 route 0;
#X obj 1001 309 route 1;
#X obj 1439 442 route brightness;
#X obj 1535 369 route contrast;
#X obj 1281 358 route rgb;
#X obj 1304 438 route dominant;
#X obj 1391 270 route 0;
#X obj 1392 322 route 2;
#X obj 1831 448 route brightness;
#X obj 1927 375 route contrast;
#X obj 1673 364 route rgb;
#X obj 1696 444 route dominant;
#X obj 1783 276 route 0;
#X obj 1784 328 route 3;
#X obj 2274 450 route brightness;
#X obj 2370 377 route contrast;
#X obj 2116 366 route rgb;
#X obj 2139 446 route dominant;
#X obj 2664 456 route brightness;
#X obj 2760 383 route contrast;
#X obj 2506 372 route rgb;
#X obj 2529 452 route dominant;
#X obj 3055 469 route brightness;
#X obj 3151 396 route contrast;
#X obj 2897 385 route rgb;
#X obj 2920 465 route dominant;
#X obj 3447 475 route brightness;
#X obj 3543 402 route contrast;
#X obj 3289 391 route rgb;
#X obj 3312 471 route dominant;
#X obj 601 829 route brightness;
#X obj 697 756 route contrast;
#X obj 443 745 route rgb;
#X obj 466 825 route dominant;
#X obj 991 835 route brightness;
#X obj 1087 762 route contrast;
#X obj 833 751 route rgb;
#X obj 856 831 route dominant;
#X obj 1382 848 route brightness;
#X obj 1478 775 route contrast;
#X obj 1224 764 route rgb;
#X obj 1247 844 route dominant;
#X obj 1774 854 route brightness;
#X obj 1870 781 route contrast;
#X obj 1616 770 route rgb;
#X obj 1639 850 route dominant;
#X obj 2257 866 route brightness;
#X obj 2353 793 route contrast;
#X obj 2099 782 route rgb;
#X obj 2122 862 route dominant;
#X obj 2647 872 route brightness;
#X obj 2743 799 route contrast;
#X obj 2489 788 route rgb;
#X obj 2512 868 route dominant;
#X obj 3038 885 route brightness;
#X obj 3134 812 route contrast;
#X obj 2880 801 route rgb;
#X obj 2903 881 route dominant;
#X obj 3430 891 route brightness;
#X obj 3526 818 route contrast;
#X obj 3272 807 route rgb;
#X obj 3295 887 route dominant;
#X obj 422 473 unpack f f f;
#X obj 183 892 0.689;
#X obj 273 898 0.653;
#X obj 376 887 0.639;
#X obj 553 657 route 2;
#X obj 554 709 route 0;
#X obj 943 663 route 2;
#X obj 944 715 route 1;
#X obj 1334 676 route 2;
#X obj 1335 728 route 2;
#X obj 1726 682 route 2;
#X obj 1727 734 route 3;
#X obj 2226 278 route 1;
#X obj 2227 330 route 0;
#X obj 2616 284 route 1;
#X obj 2617 336 route 1;
#X obj 3007 297 route 1;
#X obj 3008 349 route 2;
#X obj 3399 303 route 1;
#X obj 3400 355 route 3;
#X obj 2209 694 route 3;
#X obj 2210 746 route 0;
#X obj 2599 700 route 3;
#X obj 2600 752 route 1;
#X obj 2990 713 route 3;
#X obj 2991 765 route 2;
#X obj 3382 719 route 3;
#X obj 3383 771 route 3;
#X obj 75 1172 metro 450;
#X obj 74 1107 tgl 19 0 empty empty empty 0 -10 0 12 #fcfcfc #000000 #000000 0 1;
#X obj 75 1232 bng 19 250 50 0 empty empty empty 0 -10 0 12 #fcfcfc #000000 #000000;
#X obj 75 1283 0 \, 20 1000;
#X obj 74 1346 line~;
#X obj 74 1405 sqrt~;
#X obj 75 1478 *~ 20;
#X obj 73 1537 -~ 0.25;
#X obj 75 1587 cos~;
#X obj 76 1638 dac~;
#X connect 0 0 1 0;
#X connect 1 0 5 0;
#X connect 1 0 6 0;
#X connect 2 0 3 0;
#X connect 3 0 4 0;
#X connect 6 0 7 0;
#X connect 7 0 8 0;
#X connect 7 0 5 0;
#X connect 8 0 2 0;
#X connect 9 0 10 0;
#X connect 10 0 11 0;
#X connect 10 0 21 0;
#X connect 10 0 27 0;
#X connect 10 0 33 0;
#X connect 10 0 87 0;
#X connect 10 0 93 0;
#X connect 10 0 91 0;
#X connect 10 0 89 0;
#X connect 10 0 103 0;
#X connect 10 0 109 0;
#X connect 10 0 101 0;
#X connect 10 0 99 0;
#X connect 10 0 107 0;
#X connect 10 0 105 0;
#X connect 10 0 97 0;
#X connect 10 0 95 0;
#X connect 11 0 12 0;
#X connect 12 0 13 0;
#X connect 12 0 14 0;
#X connect 12 0 15 0;
#X connect 12 0 16 0;
#X connect 15 0 83 0;
#X connect 21 0 22 0;
#X connect 22 0 17 0;
#X connect 22 0 18 0;
#X connect 22 0 19 0;
#X connect 22 0 20 0;
#X connect 27 0 28 0;
#X connect 28 0 23 0;
#X connect 28 0 24 0;
#X connect 28 0 25 0;
#X connect 28 0 26 0;
#X connect 33 0 34 0;
#X connect 34 0 29 0;
#X connect 34 0 30 0;
#X connect 34 0 31 0;
#X connect 34 0 32 0;
#X connect 83 0 84 0;
#X connect 83 0 85 0;
#X connect 83 0 86 0;
#X connect 87 0 88 0;
#X connect 88 0 51 0;
#X connect 88 0 52 0;
#X connect 88 0 53 0;
#X connect 88 0 54 0;
#X connect 89 0 90 0;
#X connect 90 0 55 0;
#X connect 90 0 56 0;
#X connect 90 0 57 0;
#X connect 90 0 58 0;
#X connect 91 0 92 0;
#X connect 92 0 59 0;
#X connect 92 0 60 0;
#X connect 92 0 61 0;
#X connect 92 0 62 0;
#X connect 93 0 94 0;
#X connect 94 0 63 0;
#X connect 94 0 64 0;
#X connect 94 0 65 0;
#X connect 94 0 66 0;
#X connect 95 0 96 0;
#X connect 96 0 35 0;
#X connect 96 0 36 0;
#X connect 96 0 37 0;
#X connect 96 0 38 0;
#X connect 97 0 98 0;
#X connect 98 0 39 0;
#X connect 98 0 40 0;
#X connect 98 0 41 0;
#X connect 98 0 42 0;
#X connect 99 0 100 0;
#X connect 100 0 43 0;
#X connect 100 0 44 0;
#X connect 100 0 45 0;
#X connect 100 0 46 0;
#X connect 101 0 102 0;
#X connect 102 0 47 0;
#X connect 102 0 48 0;
#X connect 102 0 49 0;
#X connect 102 0 50 0;
#X connect 103 0 104 0;
#X connect 104 0 67 0;
#X connect 104 0 68 0;
#X connect 104 0 69 0;
#X connect 104 0 70 0;
#X connect 105 0 106 0;
#X connect 106 0 71 0;
#X connect 106 0 72 0;
#X connect 106 0 73 0;
#X connect 106 0 74 0;
#X connect 107 0 108 0;
#X connect 108 0 75 0;
#X connect 108 0 76 0;
#X connect 108 0 77 0;
#X connect 108 0 78 0;
#X connect 109 0 110 0;
#X connect 110 0 79 0;
#X connect 110 0 80 0;
#X connect 110 0 81 0;
#X connect 110 0 82 0;
#X connect 111 0 113 0;
#X connect 112 0 111 0;
#X connect 113 0 114 0;
#X connect 114 0 115 0;
#X connect 115 0 116 0;
#X connect 116 0 117 0;
#X connect 117 0 118 0;
#X connect 118 0 119 0;
#X connect 119 0 120 0;
#X connect 119 0 120 1;
